<svg preserveAspectRatio="none" overflow="visible" style="display: block;" width="48" height="48" viewBox="0 0 48 48" fill="none" xmlns="http://www.w3.org/2000/svg">
<g id="Frame">
<path id="Vector" d="M15.297 22.0594C18.0929 24 20.5155 26.5687 22.4154 29.6062C22.9961 30.5344 23.5271 31.5094 24 32.5125C24.4729 31.5 25.0039 30.5344 25.5846 29.6062C27.4845 26.5687 29.9071 24 32.703 22.0594C36.4115 19.4813 40.7671 18 45.4049 18H46.2262C47.1471 18 47.8938 18.8438 47.8938 19.8844C47.8938 33.7594 37.9463 45 25.6676 45H22.3324C10.0536 45 0.106195 33.7594 0.106195 19.8844C0.106195 18.8438 0.852876 18 1.77378 18H2.59513C7.23285 18 11.5885 19.4813 15.297 22.0594ZM25.12 3.525C26.4226 5.10937 30.1892 10.2562 32.1222 18.9562C28.9696 20.9812 26.1986 23.7187 24 26.9812C21.8014 23.7187 19.0304 20.9906 15.8778 18.9562C17.8025 10.2562 21.5691 5.10937 22.88 3.525C23.1704 3.17812 23.5769 3 24 3C24.4231 3 24.8296 3.17812 25.12 3.525Z" fill="#C45B73"/>
</g>
</svg>
